<svg xmlns="http://www.w3.org/2000/svg" width="24" height="24">
    <path fill="#94FEBF" fill-rule="evenodd" d="M11.999.01C5.373.01 0 5.291 0 11.806c0 5.211 3.438 9.632 8.208 11.193.6.108.819-.256.819-.569 0-.28-.01-1.022-.017-2.006-3.337.712-4.042-1.582-4.042-1.582-.544-1.362-1.332-1.725-1.332-1.725-1.091-.732.081-.717.081-.717 1.204.084 1.838 1.216 1.838 1.216 1.071 1.802 2.809 1.282 3.493.98.108-.762.419-1.282.762-1.578-2.664-.298-5.466-1.31-5.466-5.829 0-1.288.468-2.341 1.236-3.166-.125-.298-.535-1.498.117-3.121 0 0 1.008-.317 3.3 1.209a11.724 11.724 0 0 1 3.005-.397c1.018.006 2.046.136 3.004.398 2.291-1.526 3.297-1.208 3.297-1.208.654 1.624.243 2.822.12 3.12.769.826 1.233 1.879 1.233 3.167 0 4.531-2.805 5.528-5.478 5.82.43.364.814 1.084.814 2.184 0 1.577-.014 2.849-.014 3.235 0 .316.216.683.825.567C20.565 21.435 24 17.015 24 11.806 24 5.291 18.627.01 11.999.01z"/>
</svg>
